<?xml version="1.0" encoding="UTF-8"?>
<svg id="Layer_2" data-name="Layer 2" xmlns="http://www.w3.org/2000/svg" viewBox="0 0 1248.73 499.5">
  <defs>
    <style>
      .cls-1, .cls-2 {
        fill: #423b35;
        stroke-width: 0px;
      }

      .cls-2 {
        fill-rule: evenodd;
      }
    </style>
  </defs>
  <g id="Layer_1-2" data-name="Layer 1">
    <g>
      <path class="cls-2" d="M358.4,40.74c-35.99,45.68-38.56,105.4-9.1,155.04,16.41,27.88,40.93,50.82,64.86,72.77,2.18-1.19,4.75-1.78,7.51-1.78,9.29,0,17.01,7.51,17.01,16.81s-7.71,17.01-17.01,17.01-17.01-7.51-17.01-17.01c0-2.18.59-4.35,1.38-6.33-24.92-22.74-49.83-46.27-67.04-75.34-41.92-70.8-19.58-144.16,33.62-201.9-12.26,87.6,11.67,118.26,76.53,173.63,19.78,16.81,40.93,35,56.75,55.77,75.74,99.67-27.29,226.82-140.21,118.26-20.96-20.37-39.15-43.11-59.33-64.47-60.51-63.68-126.17-62.09-180.74,7.32-7.91,10.09-15.23,20.57-22.35,31.05,37.37,34.8,47.06,97.69,78.31,138.43,34.61,45.09,90.97,31.64,99.27-25.71,1.19-8.11,1.78-16.81,1.78-25.91-5.93-2.18-11.67-4.15-17.4-6.53-12.46-4.94-25.91-11.07-35.99-20.17-35.6-32.04,6.92-81.67,45.88-35.99,12.46,14.63,17.8,34.41,19.18,54.18h.2c34.41,13.05,61.11,38.76,87.8,63.48,5.14,4.75,10.48,9.49,15.82,14.04,21.75,18.39,74.35,11.87,44.49-23.14-13.25-15.42-19.18-27.88-19.58-48.25-.2-9.49,11.86-9.69,12.06-.2.4,17.6,5.14,27.49,16.61,40.74,39.55,46.27-26.7,69.21-61.3,39.95-5.54-4.55-10.88-9.49-16.22-14.24-22.54-20.96-50.82-48.05-79.5-59.33-.2,7.91-.99,15.82-1.98,23.14-9.69,67.83-79.5,84.64-120.63,31.24-30.45-39.75-41.73-102.24-75.74-135.66-9.69,14.24-21.16,32.83-36.58,43.51-37.37,25.51-75.94-11.27-52.8-49.44,18-29.86,60.12-29.47,86.81-11.67,7.32-10.48,14.63-20.96,22.35-30.85,59.33-75.34,133.48-77.12,198.94-8.11,19.97,20.96,38.17,43.7,58.93,63.87,102.04,98.08,189.45-13.84,122.01-102.63-15.23-20.17-35.99-37.57-54.78-53.59-48.84-41.73-82.07-72.18-82.86-141.99h0ZM281.87,395.3c-1.78-15.62-6.33-30.65-15.82-41.92-27.88-32.43-52.01-1.58-28.67,19.38,8.7,7.91,21.36,13.64,32.23,18,4.15,1.58,8.11,2.97,12.26,4.55h0ZM87.09,323.92c-20.76-13.64-54.58-15.82-69.41,7.32-18,28.48,9.89,53.59,37.57,32.23,13.25-10.09,23.93-27.88,31.84-39.55h0Z"/>
      <g>
        <g>
          <path class="cls-1" d="M686.89,212.72c22.83,4.93,41.81,16.24,56.95,33.94,15.14,17.71,22.71,38.1,22.71,61.19,0,26.78-9.86,49.64-29.56,68.58-19.71,18.93-43.5,28.4-71.37,28.4h-100.93c5.28-8.93,7.69-18.77,7.21-29.55V111.12c.48-11.08-1.93-20.93-7.21-29.55h95.88c27.39,0,49.38,5.54,65.96,16.63,16.58,11.08,24.87,27.87,24.87,50.34,0,18.17-5.71,32.64-17.12,43.41-11.42,10.78-27.21,17.71-47.4,20.78ZM602.19,112.51v114.99c6-11.08,14.29-16.78,24.87-17.09h27.03c18.5,0,34.3-6,47.4-18.01,13.1-12.01,19.64-26.63,19.64-43.87s-6.55-32.02-19.64-44.33c-13.1-12.31-28.9-18.47-47.4-18.47h-29.2c-6.25-.61-11.6,1.78-16.04,7.16-4.45,5.39-6.67,11.93-6.67,19.63ZM665.63,400.67c13.21-.61,25.35-5.31,36.41-14.08,11.05-8.77,19.64-20.62,25.77-35.56,6.13-14.93,8.89-30.78,8.29-47.56-.6-16.78-4.45-32.25-11.53-46.41-7.09-14.16-16.52-25.01-28.3-32.56-11.78-7.54-24.15-10.85-37.13-9.93h-32.08c-5.53.31-10.52,2.39-14.96,6.23-4.45,3.85-7.75,9-9.91,15.47v137.15c0,8.01,2.22,14.71,6.67,20.09,4.44,5.39,9.79,7.78,16.04,7.16h40.73Z"/>
          <path class="cls-1" d="M814.67,235.37c-14.65,0-21.97-5.29-21.97-15.87v-122.31c.33-5.86-1.3-11.07-4.88-15.62h26.85c-3.58,4.56-5.21,9.77-4.88,15.62v122.31c-.33,5.86,1.3,11.15,4.88,15.87Z"/>
          <path class="cls-1" d="M847.26,147.85c10.01-10.01,22.09-15.01,36.25-15.01s26.24,5,36.25,15.01c10.01,10.01,15.01,22.09,15.01,36.25s-5,26.24-15.01,36.25c-10.01,10.01-22.09,15.01-36.25,15.01s-26.24-5-36.25-15.01-15.01-22.09-15.01-36.25,5-26.24,15.01-36.25ZM883.51,233.17c9.44,0,17.49-4.76,24.17-14.28,6.67-9.52,10.01-21.08,10.01-34.67s-3.34-25.18-10.01-34.79c-6.68-9.6-14.73-14.4-24.17-14.4s-17.5,4.8-24.17,14.4c-6.68,9.6-10.01,21.2-10.01,34.79s3.33,25.15,10.01,34.67c6.67,9.52,14.73,14.28,24.17,14.28Z"/>
          <path class="cls-1" d="M987.75,284.44c7.48,2.93,15.3,4.07,23.44,3.42,4.55-.65,8.06-2.93,10.5-6.84,2.44-3.91,2.93-8.06,1.46-12.45l10.99,5.86c-1.63,3.91-4.11,7.16-7.45,9.77-3.34,2.6-7.04,4.31-11.11,5.13-9.76,1.62-19.29.65-28.56-2.93-3.75-1.3-7.61-3.05-11.6-5.25-3.99-2.2-7.98-4.84-11.96-7.93-3.99-3.09-6.96-6.71-8.91-10.86-1.95-4.15-2.36-8.26-1.22-12.33,1.46-4.39,4.64-7.37,9.52-8.91,4.88-1.55,9.6-2,14.16-1.34,4.55.65,9.03,1.71,13.43,3.17,12.04,4.72,24.57,7,37.6,6.84,6.67-.49,11.84-2.32,15.5-5.49,3.66-3.17,4.03-7.69,1.1-13.55-1.95-3.42-4.48-6.35-7.57-8.79-8.3,7.81-18.19,12.25-29.66,13.31-11.47,1.06-22.09-1.42-31.86-7.45-9.77-6.02-16.72-14.36-20.87-25.02-4.15-10.66-4.68-21.48-1.59-32.47,3.09-10.99,9.23-19.98,18.43-26.98,9.19-7,19.49-10.5,30.88-10.5h11.96c13.51.33,26.61-1.95,39.31-6.84v9.03h-36.86c8.62,2.61,16.11,7.16,22.46,13.67,6.35,6.51,10.62,14.16,12.82,22.95s2.11,17.54-.24,26.24c-2.36,8.71-6.8,16.23-13.31,22.58,6.35,5.54,10.58,11.72,12.7,18.55,2.11,6.84,1.26,12.9-2.56,18.19-3.83,5.29-10.46,8.26-19.9,8.91-14.32.16-28.16-2.28-41.5-7.32-13.35-4.72-21.4-4.56-24.17.49-2.28,4.07-.24,8.95,6.1,14.65,4.72,4.39,10.9,7.89,18.55,10.5ZM990.93,136.5v-.24c-9.28,2.28-16.03,8.87-20.26,19.77-4.23,10.91-4.72,22.95-1.46,36.13,3.25,13.18,9.24,23.68,17.94,31.49,8.71,7.81,17.66,10.62,26.85,8.42,9.19-2.2,15.91-8.75,20.14-19.65,4.23-10.9,4.72-22.99,1.46-36.25-3.26-13.26-9.24-23.76-17.94-31.49-8.71-7.73-17.62-10.46-26.73-8.18Z"/>
        </g>
        <g>
          <path class="cls-1" d="M792.21,350.71v-33.93c.32-5.86-1.3-11.07-4.88-15.62h26.85c-3.58,4.56-5.21,9.77-4.88,15.62v33.93c0,7.32.61,14.12,1.83,20.39,1.22,6.27,3.13,11.88,5.74,16.84,2.6,4.97,6.14,8.63,10.62,10.99,4.47,2.36,9.64,3.05,15.5,2.08,6.67-1.46,12.29-4.8,16.84-10.01,4.55-5.21,7.24-11.23,8.06-18.07v-56.15c.32-5.86-1.3-11.07-4.88-15.62h26.85c-3.58,4.56-5.21,9.77-4.88,15.62v71.29c-.33,5.86,1.3,11.07,4.88,15.62-14.65,0-21.97-5.21-21.97-15.62v-8.06c-1.95,7.16-5.86,12.94-11.72,17.33-5.86,4.39-12.53,6.51-20.02,6.35-8.3,0-15.38-1.34-21.24-4.03-5.86-2.68-10.38-6.51-13.55-11.47-3.17-4.96-5.49-10.5-6.96-16.6-1.46-6.1-2.2-13.06-2.2-20.87Z"/>
          <path class="cls-1" d="M1006.07,354.13v33.69c-.33,5.86,1.3,11.15,4.88,15.87h-27.1c3.74-4.72,5.45-10.01,5.13-15.87v-33.69c0-7.48-.65-14.36-1.95-20.63-1.3-6.26-3.22-11.88-5.74-16.84-2.53-4.96-6.02-8.62-10.5-10.99-4.48-2.36-9.64-3.05-15.5-2.08-6.68,1.63-12.29,5-16.85,10.13-4.56,5.13-7.24,11.11-8.06,17.94v56.15c-.33,5.86,1.3,11.15,4.88,15.87h-26.85c3.58-4.72,5.21-10.01,4.88-15.87v-71.04c.32-5.86-1.3-11.07-4.88-15.62,14.65,0,21.97,5.21,21.97,15.62v7.81c1.95-7,5.86-12.73,11.72-17.21,5.86-4.47,12.53-6.55,20.02-6.23,8.3,0,15.38,1.3,21.24,3.91,5.86,2.61,10.38,6.39,13.55,11.35,3.17,4.97,5.49,10.5,6.96,16.6s2.2,13.14,2.2,21.12Z"/>
          <path class="cls-1" d="M1125.69,354.13v33.69c-.33,5.86,1.3,11.15,4.88,15.87h-27.1c3.74-4.72,5.45-10.01,5.13-15.87v-33.69c0-7.48-.65-14.36-1.95-20.63-1.3-6.26-3.22-11.88-5.74-16.84-2.53-4.96-6.02-8.62-10.5-10.99-4.48-2.36-9.64-3.05-15.5-2.08-6.68,1.63-12.29,5-16.85,10.13-4.56,5.13-7.24,11.11-8.06,17.94v56.15c-.33,5.86,1.3,11.15,4.88,15.87h-26.85c3.58-4.72,5.21-10.01,4.88-15.87v-71.04c.32-5.86-1.3-11.07-4.88-15.62,14.65,0,21.97,5.21,21.97,15.62v7.81c1.95-7,5.86-12.73,11.72-17.21,5.86-4.47,12.53-6.55,20.02-6.23,8.3,0,15.38,1.3,21.24,3.91,5.86,2.61,10.38,6.39,13.55,11.35,3.17,4.97,5.49,10.5,6.96,16.6s2.2,13.14,2.2,21.12Z"/>
          <path class="cls-1" d="M1151.08,359.5v-42.72c.32-5.86-1.3-11.07-4.88-15.62h27.1c-3.58,4.56-5.29,9.77-5.13,15.62v56.15c0,9.61,1.91,16.97,5.74,22.09,3.82,5.13,9.8,7.29,17.94,6.47,11.07-1.3,19.65-6.02,25.76-14.16,6.1-8.14,9.16-18.8,9.16-31.98v-38.57c.32-5.86-1.38-11.07-5.13-15.62h27.1c-3.58,4.72-5.21,9.93-4.88,15.62v28.08c0,15.3-5.21,28.56-15.62,39.79,5.86,3.75,10.46,8.38,13.79,13.92,3.33,5.53,5.08,10.82,5.25,15.87.16,5.04-1.79,9.48-5.86,13.3-4.07,3.82-10.01,6.06-17.82,6.71-14.16.16-27.92-2.36-41.26-7.57-13.35-4.56-21.4-4.31-24.17.73-2.28,3.91-.24,8.79,6.1,14.65,4.72,4.23,10.9,7.73,18.55,10.5,7.48,2.77,15.3,3.91,23.44,3.42,4.55-.65,8.06-2.93,10.5-6.84,2.44-3.91,2.93-8.06,1.46-12.45l10.74,5.62c-1.46,4.07-3.87,7.4-7.2,10.01-3.34,2.6-7.04,4.23-11.11,4.88-9.76,1.79-19.29.81-28.56-2.93-3.75-1.14-7.65-2.85-11.72-5.13-4.07-2.28-8.06-4.97-11.96-8.06-3.91-3.09-6.84-6.68-8.79-10.74-1.95-4.07-2.36-8.14-1.22-12.21,1.46-4.56,4.64-7.57,9.52-9.03s9.6-1.92,14.16-1.34c4.55.57,9.03,1.59,13.43,3.05,12.04,4.72,24.57,7.08,37.6,7.08,6.51-.49,11.63-2.32,15.38-5.49,3.74-3.17,4.15-7.69,1.22-13.55-3.26-5.53-7.57-9.84-12.94-12.94-4.39,4.39-9.36,8.06-14.89,10.99-5.54,2.93-11.07,4.92-16.6,5.98-5.54,1.06-10.99.93-16.36-.37-5.37-1.3-10.09-3.58-14.16-6.83-4.07-3.25-7.37-8.01-9.89-14.28-2.52-6.26-3.78-13.63-3.78-22.09Z"/>
        </g>
        <g>
          <path class="cls-1" d="M1212.23,81.57c-.15,1.99-.97,15.81,9.86,26.64,10.83,10.83,24.66,10.01,26.64,9.86-1.99-.15-15.81-.97-26.64,9.86-10.83,10.83-10.01,24.66-9.86,26.64.15-1.99.98-15.81-9.86-26.64-10.83-10.83-24.66-10.01-26.64-9.86,1.99.15,15.81.97,26.64-9.86,10.83-10.83,10.01-24.66,9.86-26.64Z"/>
          <path class="cls-1" d="M1160.96,141.41c-.06.8-.39,6.39,3.99,10.78,4.38,4.38,9.97,4.05,10.78,3.99-.8-.06-6.39-.39-10.78,3.99-4.38,4.38-4.05,9.97-3.99,10.78.06-.8.39-6.39-3.99-10.78-4.38-4.38-9.97-4.05-10.78-3.99.8.06,6.39.39,10.78-3.99,4.38-4.38,4.05-9.97,3.99-10.78Z"/>
        </g>
      </g>
    </g>
  </g>
</svg>